<svg width="51" height="22" viewBox="0 0 51 22" fill="none" xmlns="http://www.w3.org/2000/svg">
<g id="Plus1" clip-path="url(#clip0)">
<path id="95%" d="M30.12 13.096C32.172 13.096 33.348 11.524 33.348 8.68V8.14C33.348 5.668 32.292 4.3 30.264 4.3C28.452 4.3 27.3 5.452 27.3 7.168C27.3 8.788 28.452 9.976 30.12 9.976C31.104 9.976 31.932 9.532 32.34 8.836C32.316 11.116 31.512 12.244 30.144 12.244C29.04 12.244 28.56 11.728 28.368 10.888H27.36C27.588 12.268 28.536 13.096 30.12 13.096ZM30.276 9.16C29.112 9.16 28.368 8.356 28.368 7.12C28.368 5.908 29.136 5.116 30.264 5.116C31.416 5.116 32.244 5.896 32.244 7.3C32.244 8.416 31.428 9.16 30.276 9.16ZM37.4534 13.108C39.0854 13.108 40.3934 12.004 40.3934 10.192C40.3934 8.44 39.2654 7.348 37.7294 7.348C36.9134 7.348 36.3254 7.612 35.9774 7.936V5.32H39.9374V4.42H35.1134V9.016H35.4974C35.9534 8.5 36.5294 8.188 37.5254 8.188C38.6174 8.188 39.3254 8.98 39.3254 10.192C39.3254 11.488 38.6054 12.268 37.4414 12.268C36.1334 12.268 35.7614 11.62 35.5934 10.684H34.5974C34.7174 12.088 35.6054 13.108 37.4534 13.108ZM43.1371 7.624C42.5011 7.624 42.0811 7.204 42.0811 6.388C42.0811 5.572 42.5011 5.128 43.1371 5.128C43.7851 5.128 44.1931 5.608 44.1931 6.376C44.1931 7.18 43.7851 7.624 43.1371 7.624ZM43.1371 8.404C44.1691 8.404 45.1051 7.564 45.1051 6.376C45.1051 5.212 44.2051 4.348 43.1371 4.348C42.0931 4.348 41.1691 5.212 41.1691 6.4C41.1691 7.564 42.1171 8.404 43.1371 8.404ZM42.3811 13H43.2931L48.5371 4.42H47.6251L42.3811 13ZM47.7931 12.316C47.1571 12.316 46.7371 11.896 46.7371 11.08C46.7371 10.264 47.1571 9.82 47.7931 9.82C48.4411 9.82 48.8491 10.3 48.8491 11.068C48.8491 11.872 48.4411 12.316 47.7931 12.316ZM47.7931 13.096C48.8251 13.096 49.7611 12.256 49.7611 11.068C49.7611 9.904 48.8611 9.04 47.7931 9.04C46.7491 9.04 45.8251 9.904 45.8251 11.092C45.8251 12.256 46.7731 13.096 47.7931 13.096Z" fill="#FF3E29"/>
<g id="trending-up-M-highlight">
<path id="bounds" opacity="0.01" fill-rule="evenodd" clip-rule="evenodd" d="M0.640015 0V22H22.64V0H0.640015Z" fill="#1C8FF8" fill-opacity="0.338428"/>
<g id="trending-up">
<path id="Shape" d="M17.8178 7L11.6956 13.1926L8.47335 9.93333L3.64001 14.8222" stroke="#FF3E29" stroke-linecap="round" stroke-linejoin="round"/>
<path id="Shape_2" d="M13.9511 7H17.8178V10.9111" stroke="#FF3E29" stroke-linecap="round" stroke-linejoin="round"/>
</g>
</g>
</g>
<defs>
<clipPath id="clip0">
<rect width="50" height="22" fill="white" transform="translate(0.640015)"/>
</clipPath>
</defs>
</svg>
