<svg width="48" height="22" viewBox="0 0 48 22" fill="none" xmlns="http://www.w3.org/2000/svg">
<g id="Plus3" clip-path="url(#clip0)">
<path id="21%" d="M27.188 13H32.936V12.148H28.796L31.16 9.844C32.216 8.812 32.888 7.78 32.888 6.724C32.888 5.248 31.88 4.312 30.296 4.312C28.664 4.312 27.644 5.38 27.512 7.06H28.484C28.652 5.716 29.3 5.152 30.296 5.152C31.268 5.152 31.832 5.728 31.832 6.688C31.832 7.564 31.376 8.344 30.596 9.172L27.188 12.76V13ZM35.9206 13H36.9646V4.42H35.9926L34.0006 5.86V6.832L35.9206 5.452V13ZM40.7735 7.624C40.1375 7.624 39.7175 7.204 39.7175 6.388C39.7175 5.572 40.1375 5.128 40.7735 5.128C41.4215 5.128 41.8295 5.608 41.8295 6.376C41.8295 7.18 41.4215 7.624 40.7735 7.624ZM40.7735 8.404C41.8055 8.404 42.7415 7.564 42.7415 6.376C42.7415 5.212 41.8415 4.348 40.7735 4.348C39.7295 4.348 38.8055 5.212 38.8055 6.4C38.8055 7.564 39.7535 8.404 40.7735 8.404ZM40.0175 13H40.9295L46.1735 4.42H45.2615L40.0175 13ZM45.4295 12.316C44.7935 12.316 44.3735 11.896 44.3735 11.08C44.3735 10.264 44.7935 9.82 45.4295 9.82C46.0775 9.82 46.4855 10.3 46.4855 11.068C46.4855 11.872 46.0775 12.316 45.4295 12.316ZM45.4295 13.096C46.4615 13.096 47.3975 12.256 47.3975 11.068C47.3975 9.904 46.4975 9.04 45.4295 9.04C44.3855 9.04 43.4615 9.904 43.4615 11.092C43.4615 12.256 44.4095 13.096 45.4295 13.096Z" fill="#FF3E29"/>
<g id="trending-up-M-highlight">
<path id="bounds" opacity="0.01" fill-rule="evenodd" clip-rule="evenodd" d="M0.960022 0V22H22.96V0H0.960022Z" fill="#1C8FF8" fill-opacity="0.338428"/>
<g id="trending-up">
<path id="Shape" d="M18.1378 7L12.0156 13.1926L8.79336 9.93333L3.96002 14.8222" stroke="#FF3E29" stroke-linecap="round" stroke-linejoin="round"/>
<path id="Shape_2" d="M14.2711 7H18.1378V10.9111" stroke="#FF3E29" stroke-linecap="round" stroke-linejoin="round"/>
</g>
</g>
</g>
<defs>
<clipPath id="clip0">
<rect width="47" height="22" fill="white" transform="translate(0.960022)"/>
</clipPath>
</defs>
</svg>
