<svg width="51" height="22" viewBox="0 0 51 22" fill="none" xmlns="http://www.w3.org/2000/svg">
<g id="Plus" clip-path="url(#clip0)">
<path id="79%" d="M28.712 13H29.78L32.996 4.564V4.42H27.344V5.26H31.7L28.712 13ZM36.6861 13.096C38.7381 13.096 39.9141 11.524 39.9141 8.68V8.14C39.9141 5.668 38.8581 4.3 36.8301 4.3C35.0181 4.3 33.8661 5.452 33.8661 7.168C33.8661 8.788 35.0181 9.976 36.6861 9.976C37.6701 9.976 38.4981 9.532 38.9061 8.836C38.8821 11.116 38.0781 12.244 36.7101 12.244C35.6061 12.244 35.1261 11.728 34.9341 10.888H33.9261C34.1541 12.268 35.1021 13.096 36.6861 13.096ZM36.8421 9.16C35.6781 9.16 34.9341 8.356 34.9341 7.12C34.9341 5.908 35.7021 5.116 36.8301 5.116C37.9821 5.116 38.8101 5.896 38.8101 7.3C38.8101 8.416 37.9941 9.16 36.8421 9.16ZM42.9063 7.624C42.2703 7.624 41.8503 7.204 41.8503 6.388C41.8503 5.572 42.2703 5.128 42.9063 5.128C43.5543 5.128 43.9623 5.608 43.9623 6.376C43.9623 7.18 43.5543 7.624 42.9063 7.624ZM42.9063 8.404C43.9383 8.404 44.8743 7.564 44.8743 6.376C44.8743 5.212 43.9743 4.348 42.9063 4.348C41.8623 4.348 40.9383 5.212 40.9383 6.4C40.9383 7.564 41.8863 8.404 42.9063 8.404ZM42.1503 13H43.0623L48.3063 4.42H47.3943L42.1503 13ZM47.5623 12.316C46.9263 12.316 46.5063 11.896 46.5063 11.08C46.5063 10.264 46.9263 9.82 47.5623 9.82C48.2103 9.82 48.6183 10.3 48.6183 11.068C48.6183 11.872 48.2103 12.316 47.5623 12.316ZM47.5623 13.096C48.5943 13.096 49.5303 12.256 49.5303 11.068C49.5303 9.904 48.6303 9.04 47.5623 9.04C46.5183 9.04 45.5943 9.904 45.5943 11.092C45.5943 12.256 46.5423 13.096 47.5623 13.096Z" fill="#00DB75"/>
<g id="trending-up-M-highlight">
<path id="bounds" opacity="0.01" fill-rule="evenodd" clip-rule="evenodd" d="M0.960014 22V0H22.96V22H0.960014Z" fill="#1C8FF8" fill-opacity="0.338428"/>
<g id="trending-up">
<path id="Shape" d="M18.1378 15L12.0156 8.80741L8.79335 12.0667L3.96001 7.17778" stroke="#00DB75" stroke-linecap="round" stroke-linejoin="round"/>
<path id="Shape_2" d="M14.2711 15H18.1378V11.0889" stroke="#00DB75" stroke-linecap="round" stroke-linejoin="round"/>
</g>
</g>
</g>
<defs>
<clipPath id="clip0">
<rect width="50" height="22" fill="white" transform="translate(0.960014)"/>
</clipPath>
</defs>
</svg>
